<?xml version="1.0" encoding="iso-8859-1"?>
<!-- Generator: Adobe Illustrator 23.0.2, SVG Export Plug-In . SVG Version: 6.00 Build 0)  -->
<svg version="1.1" id="Layer_1" xmlns="http://www.w3.org/2000/svg" xmlns:xlink="http://www.w3.org/1999/xlink" x="0px" y="0px"
	 viewBox="0 0 26 26" style="enable-background:new 0 0 26 26;" xml:space="preserve">
<g id="qr-code-7_1_">
	<path d="M8,0H0v8h8V0z M7,7H1V1h6V7z"/>
	<rect x="2" y="2" width="4" height="4"/>
	<path d="M0,26h8v-8H0V26z M1,19h6v6H1V19z"/>
	<rect x="2" y="20" width="4" height="4"/>
	<path d="M26,0h-8v8h8V0z M25,7h-6V1h6V7z"/>
	<rect x="20" y="2" width="4" height="4"/>
	<polygon points="12,16 11,16 11,13 12,13 12,12 10,12 10,16 7,16 7,12 6,12 6,16 5,16 5,9 4,9 4,10 0,10 0,11 4,11 4,13 2,13 2,14 
		4,14 4,17 12,17 	"/>
	<rect x="9" y="18" width="1" height="4"/>
	<polygon points="0,14 0,17 2,17 2,16 1,16 1,14 	"/>
	<polygon points="15,25 10,25 10,24 12,24 12,23 9,23 9,26 15,26 	"/>
	<polygon points="9,8 10,8 10,7 14,7 14,10 7,10 7,11 8,11 8,14 9,14 9,11 14,11 14,12 13,12 13,13 16,13 16,15 14,15 14,16 21,16 
		21,15 17,15 17,13 19,13 19,12 15,12 15,7 17,7 17,6 10,6 10,1 17,1 17,0 9,0 	"/>
	<polygon points="13,3 13,2 11,2 11,5 17,5 17,2 16,2 16,4 12,4 12,3 	"/>
	<polygon points="26,19 25,19 25,21 23,21 23,19 22,19 22,24 23,24 23,22 25,22 25,25 21,25 21,26 26,26 	"/>
	<rect x="16" y="25" width="4" height="1"/>
	<polygon points="20,18 19,18 19,19 17,19 17,20 19,20 19,21 20,21 	"/>
	<polygon points="20,22 16,22 16,18 17,18 17,17 13,17 13,18 15,18 15,19 13,19 13,20 15,20 15,22 13,22 13,23 17,23 17,24 18,24 
		18,23 20,23 	"/>
	<polygon points="26,9 23,9 23,10 25,10 25,13 23,13 23,14 25,14 25,18 26,18 	"/>
	<rect x="11" y="19" width="1" height="3"/>
	<rect x="16" y="9" width="4" height="1"/>
	<polygon points="24,11 20,11 20,14 21,14 21,12 24,12 	"/>
	<rect x="22" y="15" width="1" height="3"/>
</g>
</svg>
